<?xml version="1.0" standalone="no"?>
<!DOCTYPE svg PUBLIC "-//W3C//DTD SVG 20010904//EN"
 "http://www.w3.org/TR/2001/REC-SVG-20010904/DTD/svg10.dtd">
<svg version="1.0" xmlns="http://www.w3.org/2000/svg"
 width="437.000000pt" height="353.000000pt" viewBox="0 0 437.000000 353.000000"
 preserveAspectRatio="xMidYMid meet">

<g transform="translate(0.000000,353.000000) scale(0.100000,-0.100000)"
fill="#000000" stroke="none">
<path d="M1257 2922 c-20 -4 -20 30 8 -427 7 -121 11 -222 9 -224 -3 -3 -24
-4 -48 -2 -24 1 -47 -2 -51 -8 -3 -6 -10 -9 -15 -6 -15 9 -91 -38 -85 -53 3
-7 1 -11 -4 -8 -21 14 -38 -78 -19 -102 11 -13 11 -14 -1 -7 -10 5 -12 4 -7
-3 4 -7 14 -12 22 -12 8 0 13 -4 10 -9 -8 -13 41 -31 84 -31 49 0 90 15 108
41 7 10 18 17 23 14 5 -4 9 0 9 8 0 8 7 18 16 21 8 3 13 10 9 15 -3 5 0 13 6
17 8 4 9 32 5 88 -3 44 -11 178 -16 296 -15 329 -21 397 -34 396 -6 0 -19 -2
-29 -4z"/>
<path d="M1612 2860 c2 -19 9 -25 30 -27 16 -1 29 4 33 14 11 29 -11 36 -35
11 -13 -12 -20 -18 -17 -13 3 6 1 17 -4 25 -8 12 -9 9 -7 -10z m49 -13 c-10
-9 -11 -8 -5 6 3 10 9 15 12 12 3 -3 0 -11 -7 -18z"/>
<path d="M2626 2465 l7 -345 -58 0 c-112 0 -195 -67 -195 -158 0 -144 233
-145 307 -1 l24 46 -8 282 -8 282 35 -6 c61 -10 163 -67 188 -104 31 -47 28
-89 -13 -167 -20 -37 -34 -72 -32 -78 8 -21 94 85 111 136 44 138 -12 239
-185 328 -104 53 -119 66 -119 102 0 25 -4 28 -31 28 l-30 0 7 -345z"/>
<path d="M2213 2713 c-16 -6 -17 -43 -2 -43 5 0 7 -4 4 -10 -3 -6 5 -10 19
-10 27 0 43 15 26 25 -6 4 -7 11 -4 17 4 6 0 14 -7 19 -15 10 -18 10 -36 2z"/>
<path d="M2110 2447 c0 -8 -3 -35 -6 -61 l-7 -46 52 22 c63 25 63 43 3 76 -32
18 -42 20 -42 9z"/>
<path d="M3566 2334 c-10 -26 19 -52 42 -38 23 15 22 48 -3 53 -18 3 -18 2 -5
-15 14 -18 14 -18 -6 -1 -20 17 -22 17 -28 1z"/>
<path d="M1696 2208 c-3 -18 -8 -44 -9 -58 -2 -14 -7 -32 -10 -40 -3 -8 -22
-113 -42 -234 -20 -120 -39 -225 -42 -233 -5 -11 -9 -11 -27 6 -28 27 -69 41
-117 41 -70 0 -135 -49 -106 -80 9 -10 9 -11 0 -6 -7 4 -13 3 -13 -3 0 -5 -3
-17 -7 -27 -5 -13 -3 -15 7 -9 9 6 11 4 6 -4 -5 -7 0 -21 11 -33 66 -75 244
-59 277 25 7 18 30 119 51 225 23 115 42 192 49 192 6 0 22 -7 34 -16 12 -8
27 -12 32 -9 6 4 9 3 8 -2 -4 -11 48 -74 54 -67 5 4 5 5 14 -77 6 -53 4 -58
-26 -92 -17 -20 -30 -41 -28 -47 6 -18 80 52 99 94 43 94 12 191 -96 302 l-66
69 5 53 c5 41 3 52 -8 52 -8 0 -21 3 -30 6 -11 4 -16 -3 -20 -28z"/>
<path d="M3890 2053 c0 -16 -2 -16 -10 -3 -8 11 -10 0 -9 -40 1 -30 -1 -62 -4
-70 -3 -8 -8 -42 -11 -74 -4 -32 -11 -104 -17 -160 -6 -56 -11 -113 -11 -128
-1 -32 -1 -32 -48 -18 -19 5 -49 7 -66 4 -41 -8 -87 -51 -81 -75 3 -11 1 -17
-4 -13 -5 3 -9 -4 -9 -15 0 -12 5 -21 11 -21 6 0 8 -7 5 -16 -3 -8 -2 -12 4
-9 6 3 10 0 10 -8 0 -15 0 -15 72 -21 34 -4 52 -1 63 10 8 9 15 13 15 9 0 -3
12 5 27 19 24 22 28 37 45 173 11 81 20 190 21 242 1 51 4 83 7 70 4 -16 9 -3
13 40 11 98 9 121 -8 121 -8 0 -15 -8 -15 -17z m-33 -340 c-3 -10 -5 -4 -5 12
0 17 2 24 5 18 2 -7 2 -21 0 -30z"/>
<path d="M336 1848 c-3 -35 -8 -144 -11 -243 -3 -99 -8 -224 -11 -277 l-7 -98
-61 0 c-173 -1 -261 -153 -136 -238 30 -20 44 -23 97 -20 51 3 69 9 100 35 71
57 71 54 79 396 4 169 11 307 15 307 5 0 52 -9 106 -20 127 -26 181 -36 276
-51 91 -14 84 12 65 -237 -10 -140 -14 -162 -27 -156 -35 15 -80 15 -109 0
-115 -59 -20 -203 101 -153 54 23 66 50 78 173 5 60 18 197 28 304 11 107 16
198 12 201 -3 3 -58 14 -121 24 -130 20 -316 64 -404 94 -33 12 -60 21 -62 21
-1 0 -5 -28 -8 -62z"/>
<path d="M2825 1750 c-8 -13 3 -30 20 -30 20 0 30 21 14 31 -18 11 -26 11 -34
-1z"/>
<path d="M2355 1601 c-42 -19 -90 -77 -104 -127 -4 -16 -8 -202 -9 -414 -1
-212 -4 -436 -8 -497 l-6 -113 -124 0 -124 0 1 78 c1 111 7 126 51 130 33 3
36 6 42 42 3 21 9 45 12 54 5 14 -4 16 -60 16 l-66 0 -25 -50 c-14 -27 -25
-52 -25 -55 0 -3 14 -5 31 -5 28 0 31 -2 24 -22 -4 -13 -9 -60 -12 -104 l-5
-82 -122 -4 c-66 -2 -122 -3 -124 -2 -2 1 -5 26 -8 55 -3 36 2 70 13 104 16
44 21 50 47 50 28 1 39 16 60 83 7 21 5 22 -56 22 l-63 -1 -27 -43 c-35 -55
-36 -68 -3 -60 30 7 32 -4 9 -67 -8 -25 -14 -66 -12 -94 l3 -50 -65 -6 c-36
-4 -95 -7 -131 -8 -75 -1 -79 3 -79 87 0 35 11 61 57 137 31 52 60 92 65 89 4
-3 8 64 8 148 l0 154 -42 27 c-42 27 -44 27 -214 27 -149 0 -177 -3 -216 -20
-40 -17 -92 -60 -74 -60 4 0 0 -7 -8 -16 -13 -12 -16 -41 -16 -154 l0 -138
-27 -6 c-16 -2 -98 -10 -183 -17 l-155 -12 -40 -46 c-22 -25 -80 -88 -129
-140 -130 -139 -123 -119 -90 -258 15 -65 33 -130 41 -145 17 -35 67 -62 100
-53 158 39 664 101 1048 127 240 16 1100 16 1315 0 436 -33 737 -67 967 -109
134 -24 144 -25 168 -9 40 26 52 53 83 184 l29 124 -25 31 c-15 18 -81 90
-147 162 l-120 130 -125 11 c-69 7 -134 12 -145 13 -19 1 -20 7 -18 138 1 156
-6 199 -44 244 -50 58 -89 69 -266 69 -132 0 -164 -3 -188 -17 -16 -10 -29
-22 -29 -28 0 -5 -5 -3 -10 5 -5 8 -10 91 -10 183 0 179 -8 216 -53 266 -49
53 -85 61 -302 61 -172 0 -206 -3 -240 -19z m-98 -453 c-3 -8 -6 -5 -6 6 -1
11 2 17 5 13 3 -3 4 -12 1 -19z m163 -422 c0 -56 8 -66 50 -66 22 0 41 -4 45
-9 9 -16 15 -175 6 -189 -6 -9 -39 -12 -132 -10 l-124 3 -3 140 c-1 76 0 145
2 152 4 9 28 13 81 13 l75 0 0 -34z m275 24 l50 0 29 -70 c16 -39 31 -69 33
-66 4 4 -13 66 -35 124 -3 8 7 12 32 12 35 0 38 -3 58 -50 19 -45 25 -51 58
-56 33 -5 40 -12 60 -53 18 -40 21 -57 15 -105 l-7 -57 -132 6 c-72 3 -168 8
-212 11 l-82 6 -5 76 c-3 42 -9 89 -13 105 -6 25 -4 27 24 27 l31 0 -14 41
c-21 59 -20 62 23 55 20 -3 60 -6 87 -6z m-1227 -18 c-1 -4 -27 -47 -57 -95
-52 -84 -54 -91 -52 -151 l2 -62 -133 -12 c-73 -6 -134 -10 -135 -8 -1 1 -5
27 -9 58 l-7 56 49 56 c45 51 53 56 90 56 37 0 44 4 68 40 14 22 26 44 26 49
0 11 34 17 108 20 30 0 52 -3 50 -7z m1606 -2 c41 0 42 -1 59 -50 16 -46 21
-50 50 -50 27 -1 38 -9 70 -55 30 -44 37 -62 37 -102 0 -26 -4 -53 -8 -59 -5
-7 -43 -7 -132 2 -69 6 -127 12 -129 13 -2 1 -1 27 3 59 5 46 3 64 -14 94 -26
50 -26 71 0 63 28 -9 25 4 -12 55 l-32 43 33 -6 c18 -4 52 -7 75 -7z m-1942
-50 c-46 -45 -53 -61 -22 -53 30 8 24 -9 -21 -61 -41 -46 -41 -47 -34 -105 6
-52 5 -60 -12 -64 -30 -9 -263 -30 -268 -25 -3 2 -9 27 -14 54 l-9 49 75 73
c61 59 81 72 107 72 25 0 39 9 69 44 31 38 44 45 80 49 99 9 95 11 49 -33z
m2194 30 c28 0 37 -7 65 -50 29 -45 36 -50 68 -50 32 0 43 -8 98 -69 l63 -69
-9 -47 c-5 -25 -11 -48 -14 -52 -3 -3 -68 3 -144 12 l-138 18 3 64 c3 57 1 68
-20 92 -13 14 -32 37 -43 50 l-20 24 33 -6 c17 -4 32 -4 32 0 0 3 -17 26 -37
51 l-37 45 33 -6 c19 -4 48 -7 67 -7z m-2504 -65 l-37 -34 35 -1 34 0 -66 -67
-66 -68 9 -54 c4 -30 7 -56 6 -57 -4 -4 -249 -45 -251 -42 -1 2 -9 20 -19 41
-9 21 -23 40 -31 43 -11 4 5 24 52 67 36 34 98 92 137 129 73 69 84 74 182 77
l53 1 -38 -35z m2830 26 c43 -7 57 -18 171 -131 101 -100 122 -126 111 -135
-8 -6 -21 -28 -29 -50 -8 -22 -18 -39 -24 -38 -5 2 -63 12 -128 24 -65 11
-120 22 -122 24 -2 2 1 29 6 59 10 54 9 56 -20 83 -16 15 -42 45 -59 65 l-30
38 31 -4 c41 -4 39 6 -6 43 l-38 31 45 -1 c25 0 66 -4 92 -8z"/>
<path d="M4194 1453 c-3 -16 -28 -111 -54 -213 -27 -102 -54 -211 -61 -242 -7
-32 -15 -58 -19 -58 -4 0 -21 7 -36 15 -66 34 -146 9 -163 -51 -20 -74 45
-132 137 -121 66 7 88 36 117 148 75 291 89 334 112 337 26 4 70 53 79 87 8
31 -20 82 -59 105 -42 26 -45 25 -53 -7z m62 -92 c-11 -18 -36 -13 -36 7 0 10
3 22 7 26 10 10 37 -20 29 -33z"/>
<path d="M3334 1398 c-24 -38 -5 -72 35 -61 31 8 27 66 -6 71 -11 2 -25 -3
-29 -10z"/>
<path d="M1373 1359 c-25 -9 -31 -47 -11 -67 14 -14 32 -16 24 -3 -3 5 2 8 12
7 11 -1 18 7 20 25 4 33 -16 49 -45 38z"/>
<path d="M530 1258 c0 -12 3 -18 7 -14 11 10 12 36 2 36 -5 0 -9 -10 -9 -22z"/>
<path d="M559 1278 c-6 -20 -3 -48 5 -45 13 4 17 47 5 47 -5 0 -9 -1 -10 -2z"/>
</g>
</svg>
